<svg xmlns="http://www.w3.org/2000/svg" xmlns:xlink="http://www.w3.org/1999/xlink" viewBox="0 0 918.04 363.95"><defs><style>.cls-1{isolation:isolate;}.cls-2{opacity:0.3;mix-blend-mode:multiply;}.cls-3{fill:none;stroke:#424242;stroke-linecap:round;stroke-miterlimit:10;}.cls-10,.cls-12,.cls-14,.cls-16,.cls-18,.cls-20,.cls-4,.cls-6,.cls-8{mix-blend-mode:screen;}.cls-4{fill:url(#radial-gradient);}.cls-11,.cls-13,.cls-15,.cls-17,.cls-19,.cls-21,.cls-5,.cls-7,.cls-9{mix-blend-mode:color-dodge;}.cls-5{fill:url(#radial-gradient-2);}.cls-6{fill:url(#radial-gradient-3);}.cls-7{fill:url(#radial-gradient-4);}.cls-8{fill:url(#radial-gradient-5);}.cls-9{fill:url(#radial-gradient-6);}.cls-10{fill:url(#radial-gradient-7);}.cls-11{fill:url(#radial-gradient-8);}.cls-12{fill:url(#radial-gradient-9);}.cls-13{fill:url(#radial-gradient-10);}.cls-14{fill:url(#radial-gradient-11);}.cls-15{fill:url(#radial-gradient-12);}.cls-16{fill:url(#radial-gradient-13);}.cls-17{fill:url(#radial-gradient-14);}.cls-18{fill:url(#radial-gradient-15);}.cls-19{fill:url(#radial-gradient-16);}.cls-20{fill:url(#radial-gradient-17);}.cls-21{fill:url(#radial-gradient-18);}</style><radialGradient id="radial-gradient" cx="771.75" cy="82.83" r="4.49" gradientTransform="matrix(1, -0.39, 1, 0.39, -78.71, 419.16)" gradientUnits="userSpaceOnUse"><stop offset="0" stop-color="#fff"/><stop offset="0.1" stop-color="#cecece"/><stop offset="0.27" stop-color="#868686"/><stop offset="0.42" stop-color="#4c4c4c"/><stop offset="0.54" stop-color="#232323"/><stop offset="0.64" stop-color="#090909"/><stop offset="0.7"/></radialGradient><radialGradient id="radial-gradient-2" cx="738.54" cy="-7" r="8.38" gradientTransform="matrix(1, -0.39, 1, 0.39, 44.34, 441.39)" gradientUnits="userSpaceOnUse"><stop offset="0" stop-color="#fcee21"/><stop offset="0.06" stop-color="#c8bc1a"/><stop offset="0.12" stop-color="#999114"/><stop offset="0.18" stop-color="#706a0f"/><stop offset="0.25" stop-color="#4d490a"/><stop offset="0.32" stop-color="#312e06"/><stop offset="0.39" stop-color="#1b1a04"/><stop offset="0.47" stop-color="#0c0b02"/><stop offset="0.57" stop-color="#030300"/><stop offset="0.7"/></radialGradient><radialGradient id="radial-gradient-3" cx="653.45" cy="82.3" r="4.49" xlink:href="#radial-gradient"/><radialGradient id="radial-gradient-4" cx="620.24" cy="-7.53" r="8.38" xlink:href="#radial-gradient-2"/><radialGradient id="radial-gradient-5" cx="540.3" cy="56.96" r="4.49" xlink:href="#radial-gradient"/><radialGradient id="radial-gradient-6" cx="507.09" cy="-32.88" r="8.38" xlink:href="#radial-gradient-2"/><radialGradient id="radial-gradient-7" cx="512.17" cy="-49.24" r="4.49" xlink:href="#radial-gradient"/><radialGradient id="radial-gradient-8" cx="478.96" cy="-139.07" r="8.38" xlink:href="#radial-gradient-2"/><radialGradient id="radial-gradient-9" cx="569.38" cy="-175.86" r="4.49" xlink:href="#radial-gradient"/><radialGradient id="radial-gradient-10" cx="536.17" cy="-265.69" r="8.38" xlink:href="#radial-gradient-2"/><radialGradient id="radial-gradient-11" cx="400.92" cy="-87.46" r="4.49" xlink:href="#radial-gradient"/><radialGradient id="radial-gradient-12" cx="367.7" cy="-177.3" r="8.38" xlink:href="#radial-gradient-2"/><radialGradient id="radial-gradient-13" cx="622.16" cy="-17.55" r="4.49" xlink:href="#radial-gradient"/><radialGradient id="radial-gradient-14" cx="588.95" cy="-107.39" r="8.38" xlink:href="#radial-gradient-2"/><radialGradient id="radial-gradient-15" cx="640.7" cy="-325.77" r="4.49" xlink:href="#radial-gradient"/><radialGradient id="radial-gradient-16" cx="607.49" cy="-415.61" r="8.38" xlink:href="#radial-gradient-2"/><radialGradient id="radial-gradient-17" cx="751.51" cy="-301.76" r="4.49" xlink:href="#radial-gradient"/><radialGradient id="radial-gradient-18" cx="718.29" cy="-391.59" r="8.38" xlink:href="#radial-gradient-2"/></defs><title>bg_spirals</title><g class="cls-1"><g id="Layer_2" data-name="Layer 2"><g id="Layer_1-2" data-name="Layer 1"><g class="cls-2"><path class="cls-3" d="M184.92,251.28l-91.8-36.12c-123.35-48.53-123.35-127.49,0-176s324.19-48.59,447.54-.06L647,80.93C913.28,185.69,845.38,288.16,776.72,342"/><path class="cls-3" d="M285.92,247,149.05,193.15c-92.5-36.39-92.5-95.61,0-132S392.21,24.7,484.7,61.09l106.37,41.85c254.61,100.18,165.71,195,90.06,242.58a198.26,198.26,0,0,1-33,16.35"/><path class="cls-3" d="M324.67,306.3c-6.53-14.62.39-30.11,21.88-43.6,26.11-16.38,31.72-23.38-35.19-49.71L205,171.14c-61.65-24.25-61.65-63.72,0-88,61.8-24.32,162.12-24.32,223.77-.06L535.12,125C740.2,205.64,691.24,280.46,614.06,329a131.94,131.94,0,0,1-21.91,10.84c-25,9.85-56.87,15.67-90,17.39"/><path class="cls-3" d="M429.11,319.07h0c-29.33-10-36.11-26.92-15.52-39.84,57-35.79,27.73-59.12-46.29-88.25L260.93,149.13c-30.85-12.14-30.85-31.82,0-44l.16-.06C291.94,93,342,93,372.81,105.11L479.18,147C615.71,200.68,638.25,255.1,547,312.52,521.61,328.48,465.32,331.38,429.11,319.07Z"/><path class="cls-3" d="M315.11,126.43,423.24,169C523,208.22,558,247.07,479.72,296.17"/><line class="cls-3" x1="324.76" y1="306.31" x2="184.91" y2="251.28"/><path class="cls-3" d="M501.3,357.13c-45.32-5.91-87.92-16-124-30.14l-52.56-20.68"/><path class="cls-3" d="M775.73,342.81c-82,21.38-183.66,26.15-274.43,14.32"/><path class="cls-3" d="M647,80.93l177.86,70c123.58,48.63,123.58,127.46,0,176.09h0a433.42,433.42,0,0,1-49.13,15.82"/><path class="cls-3" d="M184.91,251.28,93.19,215.19C-30.4,166.57-30.4,87.73,93.19,39.11h0c123.58-48.63,324-48.63,447.53,0L647,80.93"/></g><path class="cls-4" d="M780.37,146.31c2.48,1,2.48,2.56,0,3.54a14.25,14.25,0,0,1-9,0c-2.48-1-2.48-2.56,0-3.54A14.11,14.11,0,0,1,780.37,146.31Z"/><path class="cls-5" d="M784.25,144.73c4.63,1.82,4.63,4.77,0,6.59a26.38,26.38,0,0,1-16.75,0c-4.63-1.82-4.63-4.77,0-6.59A26.38,26.38,0,0,1,784.25,144.73Z"/><path class="cls-6" d="M661.54,192.65c2.48,1,2.48,2.56,0,3.54a14.25,14.25,0,0,1-9,0c-2.48-1-2.48-2.56,0-3.54A14.11,14.11,0,0,1,661.54,192.65Z"/><path class="cls-7" d="M665.42,191.07c4.63,1.82,4.63,4.77,0,6.59a26.24,26.24,0,0,1-16.75,0c-4.63-1.82-4.63-4.77,0-6.59A26.38,26.38,0,0,1,665.42,191.07Z"/><path class="cls-8" d="M523,227.2c2.48,1,2.48,2.56,0,3.54a14.11,14.11,0,0,1-9,0c-2.48-1-2.48-2.56,0-3.54A14.25,14.25,0,0,1,523,227.2Z"/><path class="cls-9" d="M526.92,225.62c4.63,1.82,4.63,4.78,0,6.6a26.38,26.38,0,0,1-16.75,0c-4.63-1.82-4.63-4.78,0-6.6A26.38,26.38,0,0,1,526.92,225.62Z"/><path class="cls-10" d="M388.72,196.48c2.48,1,2.48,2.56,0,3.54a14.25,14.25,0,0,1-9,0c-2.48-1-2.48-2.56,0-3.54A14.25,14.25,0,0,1,388.72,196.48Z"/><path class="cls-11" d="M392.6,194.9c4.63,1.82,4.63,4.77,0,6.6a26.38,26.38,0,0,1-16.75,0c-4.63-1.83-4.63-4.78,0-6.6A26.38,26.38,0,0,1,392.6,194.9Z"/><path class="cls-12" d="M319.31,124.15c2.48,1,2.48,2.56,0,3.54a14.25,14.25,0,0,1-9,0c-2.48-1-2.48-2.56,0-3.54A14.11,14.11,0,0,1,319.31,124.15Z"/><path class="cls-13" d="M323.19,122.57c4.63,1.82,4.63,4.77,0,6.59a26.41,26.41,0,0,1-16.76,0c-4.62-1.82-4.62-4.77,0-6.59A26.41,26.41,0,0,1,323.19,122.57Z"/><path class="cls-14" d="M239.24,225.22c2.48,1,2.48,2.56,0,3.53a14.11,14.11,0,0,1-9,0c-2.48-1-2.48-2.56,0-3.53A14.11,14.11,0,0,1,239.24,225.22Z"/><ellipse class="cls-15" cx="234.74" cy="226.94" rx="11.85" ry="4.66"/><path class="cls-16" d="M530.39,165.67c2.49,1,2.49,2.56,0,3.54a14.22,14.22,0,0,1-9,0c-2.49-1-2.49-2.56,0-3.54A14.08,14.08,0,0,1,530.39,165.67Z"/><path class="cls-17" d="M534.28,164.09c4.62,1.82,4.62,4.77,0,6.6a26.41,26.41,0,0,1-16.76,0c-4.63-1.83-4.63-4.78,0-6.6A26.41,26.41,0,0,1,534.28,164.09Z"/><path class="cls-18" d="M240.71,37.1c2.48,1,2.48,2.56,0,3.53a14.11,14.11,0,0,1-9,0c-2.48-1-2.48-2.56,0-3.53A14.11,14.11,0,0,1,240.71,37.1Z"/><path class="cls-19" d="M244.59,35.52c4.63,1.82,4.63,4.77,0,6.59a26.38,26.38,0,0,1-16.75,0c-4.63-1.82-4.63-4.77,0-6.59A26.38,26.38,0,0,1,244.59,35.52Z"/><path class="cls-20" d="M375.53,2.94c2.49,1,2.49,2.56,0,3.54a14.08,14.08,0,0,1-9,0c-2.49-1-2.49-2.56,0-3.54A14.22,14.22,0,0,1,375.53,2.94Z"/><ellipse class="cls-21" cx="371.04" cy="4.66" rx="11.85" ry="4.66"/></g></g></g></svg>