<svg xmlns="http://www.w3.org/2000/svg" xmlns:xlink="http://www.w3.org/1999/xlink" viewBox="0 0 1000 426">
    <defs>
        <style>
            .cls-1{fill:#6200ea;}.cls-2{isolation:isolate;}.cls-3{clip-path:url(#clip-path);}.cls-4{opacity:0.3;mix-blend-mode:multiply;}.cls-5{fill:none;stroke:#424242;stroke-linecap:round;stroke-miterlimit:10;}.cls-10,.cls-12,.cls-14,.cls-16,.cls-18,.cls-20,.cls-22,.cls-6,.cls-8{mix-blend-mode:screen;}.cls-6{fill:url(#radial-gradient);}.cls-11,.cls-13,.cls-15,.cls-17,.cls-19,.cls-21,.cls-23,.cls-7,.cls-9{mix-blend-mode:color-dodge;}.cls-7{fill:url(#radial-gradient-2);}.cls-8{fill:url(#radial-gradient-3);}.cls-9{fill:url(#radial-gradient-4);}.cls-10{fill:url(#radial-gradient-5);}.cls-11{fill:url(#radial-gradient-6);}.cls-12{fill:url(#radial-gradient-7);}.cls-13{fill:url(#radial-gradient-8);}.cls-14{fill:url(#radial-gradient-9);}.cls-15{fill:url(#radial-gradient-10);}.cls-16{fill:url(#radial-gradient-11);}.cls-17{fill:url(#radial-gradient-12);}.cls-18{fill:url(#radial-gradient-13);}.cls-19{fill:url(#radial-gradient-14);}.cls-20{fill:url(#radial-gradient-15);}.cls-21{fill:url(#radial-gradient-16);}.cls-22{fill:url(#radial-gradient-17);}.cls-23{fill:url(#radial-gradient-18);}
        </style>
        <clipPath id="clip-path">
            <rect class="cls-1" x="0" width="800" height="306.67"/>
        </clipPath>
        <radialGradient id="radial-gradient" cx="500" cy="145.85" r="4.49"
                        gradientTransform="matrix(1, -0.39, 1, 0.39, -141.72, 457.38)" gradientUnits="userSpaceOnUse">
            <stop offset="0" stop-color="#fff"/>
            <stop offset="0.1" stop-color="#cecece"/>
            <stop offset="0.27" stop-color="#868686"/>
            <stop offset="0.42" stop-color="#4c4c4c"/>
            <stop offset="0.54" stop-color="#232323"/>
            <stop offset="0.64" stop-color="#090909"/>
            <stop offset="0.7"/>
        </radialGradient>
        <radialGradient id="radial-gradient-2" cx="500" cy="56.01" r="8.38"
                        gradientTransform="matrix(1, -0.39, 1, 0.39, -18.68, 479.61)" gradientUnits="userSpaceOnUse">
            <stop offset="0" stop-color="#fcee21"/>
            <stop offset="0.06" stop-color="#c8bc1a"/>
            <stop offset="0.12" stop-color="#999114"/>
            <stop offset="0.18" stop-color="#706a0f"/>
            <stop offset="0.25" stop-color="#4d490a"/>
            <stop offset="0.32" stop-color="#312e06"/>
            <stop offset="0.39" stop-color="#1b1a04"/>
            <stop offset="0.47" stop-color="#0c0b02"/>
            <stop offset="0.57" stop-color="#030300"/>
            <stop offset="0.7"/>
        </radialGradient>
        <radialGradient id="radial-gradient-3" cx="653.45" cy="145.32" r="4.49" xlink:href="#radial-gradient"/>
        <radialGradient id="radial-gradient-4" cx="620.24" cy="55.48" r="8.38" xlink:href="#radial-gradient-2"/>
        <radialGradient id="radial-gradient-5" cx="540.3" cy="119.97" r="4.49" xlink:href="#radial-gradient"/>
        <radialGradient id="radial-gradient-6" cx="507.09" cy="30.14" r="8.38" xlink:href="#radial-gradient-2"/>
        <radialGradient id="radial-gradient-7" cx="512.17" cy="13.77" r="4.49" xlink:href="#radial-gradient"/>
        <radialGradient id="radial-gradient-8" cx="478.96" cy="-76.06" r="8.38" xlink:href="#radial-gradient-2"/>
        <radialGradient id="radial-gradient-9" cx="569.38" cy="-112.84" r="4.49" xlink:href="#radial-gradient"/>
        <radialGradient id="radial-gradient-10" cx="536.17" cy="-202.68" r="8.38" xlink:href="#radial-gradient-2"/>
        <radialGradient id="radial-gradient-11" cx="400.92" cy="-24.45" r="4.49" xlink:href="#radial-gradient"/>
        <radialGradient id="radial-gradient-12" cx="367.7" cy="-114.29" r="8.38" xlink:href="#radial-gradient-2"/>
        <radialGradient id="radial-gradient-13" cx="622.16" cy="45.46" r="4.49" xlink:href="#radial-gradient"/>
        <radialGradient id="radial-gradient-14" cx="588.95" cy="-44.37" r="8.38" xlink:href="#radial-gradient-2"/>
        <radialGradient id="radial-gradient-15" cx="640.7" cy="-262.76" r="4.49" xlink:href="#radial-gradient"/>
        <radialGradient id="radial-gradient-16" cx="607.49" cy="-352.6" r="8.38" xlink:href="#radial-gradient-2"/>
        <radialGradient id="radial-gradient-17" cx="751.51" cy="-238.74" r="4.49" xlink:href="#radial-gradient"/>
        <radialGradient id="radial-gradient-18" cx="718.29" cy="-328.58" r="8.38" xlink:href="#radial-gradient-2"/>
    </defs>
    <title>footerbg</title>
    <g class="cls-2">
        <g id="Layer_2" data-name="Layer 2">
            <g id="Layer_1-2" data-name="Layer 1">
                <rect class="cls-1" x="208.67" width="800" height="306.67"/>
                <g class="cls-3">
                    <g class="cls-4">
                        <path class="cls-5"
                              d="M184.92,314.29l-91.8-36.12c-123.35-48.53-123.35-127.49,0-176s324.19-48.59,447.54-.06L647,143.94C913.28,248.7,845.38,351.17,776.72,405.06"/>
                        <path class="cls-5"
                              d="M285.92,310,149.05,256.16c-92.5-36.39-92.5-95.61,0-132s243.16-36.45,335.65-.06L591.07,166c254.61,100.18,165.71,195,90.06,242.59a198.26,198.26,0,0,1-33,16.34"/>
                        <path class="cls-5"
                              d="M324.67,369.31c-6.53-14.61.39-30.11,21.88-43.6,26.11-16.37,31.72-23.38-35.19-49.71L205,234.15c-61.65-24.25-61.65-63.72,0-88,61.8-24.31,162.12-24.31,223.77-.06L535.12,188C740.2,268.65,691.24,343.47,614.06,392a131.16,131.16,0,0,1-21.91,10.84c-25,9.85-56.87,15.67-90,17.39"/>
                        <path class="cls-5"
                              d="M429.11,382.08h0c-29.33-10-36.11-26.92-15.52-39.83,57-35.8,27.73-59.13-46.29-88.26L260.93,212.14c-30.85-12.14-30.85-31.82,0-44l.16-.06C291.94,156,342,156,372.81,168.12L479.18,210C615.71,263.69,638.25,318.11,547,375.53,521.61,391.5,465.32,394.39,429.11,382.08Z"/>
                        <path class="cls-5" d="M315.11,189.44,423.24,232C523,271.24,558,310.08,479.72,359.18"/>
                        <line class="cls-5" x1="324.76" y1="369.32" x2="184.91" y2="314.29"/>
                        <path class="cls-5" d="M501.3,420.14c-45.32-5.9-87.92-15.95-124-30.14l-52.56-20.68"/>
                        <path class="cls-5" d="M775.73,405.82c-82,21.38-183.66,26.16-274.43,14.32"/>
                        <path class="cls-5"
                              d="M647,143.94l177.86,70c123.58,48.63,123.58,127.46,0,176.09h0a433.42,433.42,0,0,1-49.13,15.82"/>
                        <path class="cls-5"
                              d="M184.91,314.29,93.19,278.2c-123.59-48.62-123.59-127.45,0-176.08h0c123.58-48.62,324-48.62,447.53,0L647,143.94"/>
                    </g>
                    <path class="cls-6"
                          d="M780.37,209.32c2.48,1,2.48,2.56,0,3.54a14.11,14.11,0,0,1-9,0c-2.48-1-2.48-2.56,0-3.54A14.25,14.25,0,0,1,780.37,209.32Z"/>
                    <path class="cls-7"
                          d="M784.25,207.74c4.63,1.82,4.63,4.78,0,6.6a26.38,26.38,0,0,1-16.75,0c-4.63-1.82-4.63-4.78,0-6.6A26.38,26.38,0,0,1,784.25,207.74Z"/>
                    <path class="cls-8"
                          d="M661.54,255.66c2.48,1,2.48,2.56,0,3.54a14.11,14.11,0,0,1-9,0c-2.48-1-2.48-2.56,0-3.54A14.25,14.25,0,0,1,661.54,255.66Z"/>
                    <path class="cls-9"
                          d="M665.42,254.08c4.63,1.83,4.63,4.78,0,6.6a26.38,26.38,0,0,1-16.75,0c-4.63-1.82-4.63-4.77,0-6.6A26.38,26.38,0,0,1,665.42,254.08Z"/>
                    <path class="cls-10"
                          d="M523,290.21c2.48,1,2.48,2.56,0,3.54a14.11,14.11,0,0,1-9,0c-2.48-1-2.48-2.56,0-3.54A14.25,14.25,0,0,1,523,290.21Z"/>
                    <path class="cls-11"
                          d="M526.92,288.64c4.63,1.82,4.63,4.77,0,6.59a26.38,26.38,0,0,1-16.75,0c-4.63-1.82-4.63-4.77,0-6.59A26.38,26.38,0,0,1,526.92,288.64Z"/>
                    <path class="cls-12"
                          d="M388.72,259.49c2.48,1,2.48,2.56,0,3.54a14.11,14.11,0,0,1-9,0c-2.48-1-2.48-2.56,0-3.54A14.25,14.25,0,0,1,388.72,259.49Z"/>
                    <path class="cls-13"
                          d="M392.6,257.91c4.63,1.83,4.63,4.78,0,6.6a26.38,26.38,0,0,1-16.75,0c-4.63-1.82-4.63-4.77,0-6.6A26.38,26.38,0,0,1,392.6,257.91Z"/>
                    <path class="cls-14"
                          d="M319.31,187.16c2.48,1,2.48,2.56,0,3.54a14.25,14.25,0,0,1-9,0c-2.48-1-2.48-2.56,0-3.54A14.25,14.25,0,0,1,319.31,187.16Z"/>
                    <path class="cls-15"
                          d="M323.19,185.58c4.63,1.82,4.63,4.78,0,6.6a26.41,26.41,0,0,1-16.76,0c-4.62-1.82-4.62-4.78,0-6.6A26.41,26.41,0,0,1,323.19,185.58Z"/>
                    <path class="cls-16"
                          d="M239.24,288.23c2.48,1,2.48,2.56,0,3.54a14.25,14.25,0,0,1-9,0c-2.48-1-2.48-2.56,0-3.54A14.11,14.11,0,0,1,239.24,288.23Z"/>
                    <ellipse class="cls-17" cx="234.74" cy="289.95" rx="11.85" ry="4.66"/>
                    <path class="cls-18"
                          d="M530.39,228.68c2.49,1,2.49,2.56,0,3.54a14.08,14.08,0,0,1-9,0c-2.49-1-2.49-2.56,0-3.54A14.22,14.22,0,0,1,530.39,228.68Z"/>
                    <path class="cls-19"
                          d="M534.28,227.1c4.62,1.83,4.62,4.78,0,6.6a26.41,26.41,0,0,1-16.76,0c-4.63-1.82-4.63-4.77,0-6.6A26.41,26.41,0,0,1,534.28,227.1Z"/>
                    <path class="cls-20"
                          d="M240.71,100.11c2.48,1,2.48,2.56,0,3.53a14.11,14.11,0,0,1-9,0c-2.48-1-2.48-2.56,0-3.53A14.11,14.11,0,0,1,240.71,100.11Z"/>
                    <path class="cls-21"
                          d="M244.59,98.53c4.63,1.82,4.63,4.77,0,6.59a26.38,26.38,0,0,1-16.75,0c-4.63-1.82-4.63-4.77,0-6.59A26.38,26.38,0,0,1,244.59,98.53Z"/>
                    <path class="cls-22"
                          d="M375.53,66c2.49,1,2.49,2.56,0,3.53a14.08,14.08,0,0,1-9,0c-2.49-1-2.49-2.56,0-3.53A14.08,14.08,0,0,1,375.53,66Z"/>
                    <ellipse class="cls-23" cx="371.04" cy="67.67" rx="11.85" ry="4.66"/>
                </g>
            </g>
        </g>
    </g>
</svg>