<svg xmlns="http://www.w3.org/2000/svg" viewBox="0 0 639.6 737.85"><defs><style>.cls-1{fill:#22a1ff;}.cls-1,.cls-2{opacity:0.8;}.cls-2{fill:#d2dfff;}</style></defs><title>hero-squiggles</title><g id="Layer_2" data-name="Layer 2"><g id="_àð_1" data-name="˜àð_1"><path class="cls-1" d="M0,0V737.85H639.6c-8.09-13-19.72-26.45-35.18-47.76-37.12-51.17-13.91-75-8.9-137.22S484,460.35,463,419.22s1-92.29,13-122.39,12-72.23-35.11-126.4S418.59,34.81,476.62,0Z"/><path class="cls-2" d="M556.73,552.87C552.37,490.68,431.29,460.35,404,419.22s-12.91-92.29-5.41-122.39,1.15-72.23-54.17-126.4S301.69,34.81,354.47,0H0V737.85H628.7c-10.05-13-23.71-26.45-42.39-47.76C541.48,638.92,561.09,615.07,556.73,552.87Z"/><path class="cls-2" d="M156,628.45C111.5,607.12,97.6,555.83,88.6,526.14c-8-26.48-30.42-55.53-88.6-74.37V737.85H400.67c-16.56-18.34-23.35-41.83-45-73C320,613.73,200.51,649.78,156,628.45Z"/></g></g></svg>