<svg xmlns="http://www.w3.org/2000/svg" xmlns:xlink="http://www.w3.org/1999/xlink" viewBox="0 0 184.52 166.64">
  <defs>
    <style>
      .cls-1 {
        fill: #c91d63;
      }

      .cls-2 {
        fill: url(#linear-gradient);
      }

      .cls-3 {
        fill: none;
      }

      .cls-4 {
        fill: url(#linear-gradient-2);
      }

      .cls-5 {
        fill: url(#linear-gradient-3);
      }

      .cls-6 {
        fill: #fff;
      }

      .cls-7 {
        fill: url(#linear-gradient-4);
      }

      .cls-12, .cls-8 {
        fill: #9adaef;
      }

      .cls-8 {
        opacity: 0.5;
      }

      .cls-9 {
        opacity: 0.7;
        fill: url(#linear-gradient-5);
      }

      .cls-10 {
        fill: url(#linear-gradient-6);
      }

      .cls-11 {
        fill: #f1f2f2;
      }

      .cls-13 {
        fill: #f26a50;
      }
    </style>
    <linearGradient id="linear-gradient" x1="54.3" y1="226.98" x2="54.3" y2="135.16" gradientTransform="translate(36.9 -62.92) rotate(3.7)" gradientUnits="userSpaceOnUse">
      <stop offset="0" stop-color="#0e1139"/>
      <stop offset="0.12" stop-color="#13113a"/>
      <stop offset="0.27" stop-color="#23123e"/>
      <stop offset="0.43" stop-color="#3c1443"/>
      <stop offset="0.61" stop-color="#60164b"/>
      <stop offset="0.79" stop-color="#8d1956"/>
      <stop offset="0.98" stop-color="#c41d62"/>
      <stop offset="1" stop-color="#c91d63"/>
    </linearGradient>
    <linearGradient id="linear-gradient-2" x1="80.04" y1="162.46" x2="80.04" y2="70.65" gradientUnits="userSpaceOnUse">
      <stop offset="0" stop-color="#c91d63"/>
      <stop offset="0.04" stop-color="#c13f7c"/>
      <stop offset="0.09" stop-color="#b86397"/>
      <stop offset="0.15" stop-color="#b083af"/>
      <stop offset="0.21" stop-color="#a99fc3"/>
      <stop offset="0.28" stop-color="#a3b5d3"/>
      <stop offset="0.36" stop-color="#9fc6e0"/>
      <stop offset="0.46" stop-color="#9cd1e9"/>
      <stop offset="0.6" stop-color="#9ad8ee"/>
      <stop offset="1" stop-color="#9adaef"/>
    </linearGradient>
    <linearGradient id="linear-gradient-3" x1="79.99" y1="159.27" x2="79.99" y2="67.45" gradientUnits="userSpaceOnUse">
      <stop offset="0" stop-color="#fff"/>
      <stop offset="0.21" stop-color="#fbfefe"/>
      <stop offset="0.41" stop-color="#f0fafd"/>
      <stop offset="0.6" stop-color="#ddf3fa"/>
      <stop offset="0.78" stop-color="#c3e9f5"/>
      <stop offset="0.97" stop-color="#a1dcf0"/>
      <stop offset="1" stop-color="#9adaef"/>
    </linearGradient>
    <linearGradient id="linear-gradient-4" x1="16.5" y1="112.83" x2="144.55" y2="112.83" gradientUnits="userSpaceOnUse">
      <stop offset="0" stop-color="#0e1139"/>
      <stop offset="0.45" stop-color="#1f429a"/>
      <stop offset="0.99" stop-color="#f58c7e"/>
    </linearGradient>
    <linearGradient id="linear-gradient-5" x1="63.63" y1="76.04" x2="111.87" y2="27.8" gradientUnits="userSpaceOnUse">
      <stop offset="0" stop-color="#9adaef"/>
      <stop offset="0.21" stop-color="#9dd8ec"/>
      <stop offset="0.39" stop-color="#a5d0e1"/>
      <stop offset="0.56" stop-color="#b4c4cf"/>
      <stop offset="0.73" stop-color="#c8b3b6"/>
      <stop offset="0.89" stop-color="#e19d96"/>
      <stop offset="0.99" stop-color="#f58c7e"/>
    </linearGradient>
    <linearGradient id="linear-gradient-6" x1="711.85" y1="-655.08" x2="715.32" y2="-671.39" gradientTransform="translate(-150.15 971.09) rotate(-30.13)" xlink:href="#linear-gradient-3"/>
  </defs>
  <title>AR</title>
  <g id="Layer_2" data-name="Layer 2">
    <g id="Layer_1-2" data-name="Layer 1">
      <g>
        <path class="cls-1" d="M64.73,137.77H0V81.83H64.73ZM1.6,136.17H63.14V83.43H1.6Z"/>
        <path class="cls-1" d="M158.2,41.6H94.57V0H158.2Zm-62-1.6H156.6V1.6H96.17Z"/>
        <path class="cls-2" d="M150.78,115.24a1.74,1.74,0,0,0-.65-.59c-.06-.11-61.8-38.72-61.8-38.72a1,1,0,0,0-1.1.13L10.16,108.92a1.14,1.14,0,0,0-.35.27,1.68,1.68,0,0,0-.54.4,1.36,1.36,0,0,0-.16,1.87L69,166.39a1.16,1.16,0,0,0,1.35.07,1.48,1.48,0,0,0,.29-.12l79.83-49.14A1.42,1.42,0,0,0,150.78,115.24Z"/>
        <path class="cls-3" d="M105.91,83.25c0,29.23,21.58,50.59,47.89,50.59a46.69,46.69,0,0,0,30.12-10.9H160V49.4h24.53A49.07,49.07,0,0,0,153.8,38.51C127.49,38.51,105.91,59.87,105.91,83.25Z"/>
        <path class="cls-4" d="M151.36,103.28l-1.22.51L86,70.73a1,1,0,0,0-1.1.21L10.1,107.1l-.33.29-1-.1s0,3.61.49,4l63.26,51a1.19,1.19,0,0,0,1.36,0,1.08,1.08,0,0,0,.28-.15l76.5-54.18C151.2,107.49,151.36,103.28,151.36,103.28Z"/>
        <g>
          <path class="cls-5" d="M150.83,102.75a1.55,1.55,0,0,0-.69-.56C150.08,102.09,86,67.54,86,67.54a1,1,0,0,0-1.1.2L10.1,105.5a.92.92,0,0,0-.33.29,1.65,1.65,0,0,0-.52.44,1.35,1.35,0,0,0,0,1.87l63.26,51a1.17,1.17,0,0,0,1.36,0,1,1,0,0,0,.28-.14l76.5-54.18A1.41,1.41,0,0,0,150.83,102.75Z"/>
          <path class="cls-6" d="M73.08,159.53a1.21,1.21,0,0,1-.77-.26l-63.26-51a1.25,1.25,0,0,1-.46-1A2,2,0,0,1,9,106.06a2.11,2.11,0,0,1,.55-.48,1.34,1.34,0,0,1,.39-.32L84.74,67.52a1.27,1.27,0,0,1,1.37-.22c56.49,30.45,63.28,34.16,64.13,34.66h0a1.84,1.84,0,0,1,.8.64,1.69,1.69,0,0,1-.29,2.35L74.27,159.12a1.59,1.59,0,0,1-.32.16A1.67,1.67,0,0,1,73.08,159.53ZM85.63,67.72a1,1,0,0,0-.58.23l0,0L10.22,105.74A.79.79,0,0,0,10,106L9.9,106a1.58,1.58,0,0,0-.44.37,1.48,1.48,0,0,0-.34.87.79.79,0,0,0,.26.63l63.26,51a.94.94,0,0,0,1-.05l0,0a.9.9,0,0,0,.22-.11l76.49-54.18a1.14,1.14,0,0,0,.16-1.6,1.22,1.22,0,0,0-.57-.46l-.09,0c-2-1.12-63.47-34.28-64.1-34.62A.4.4,0,0,0,85.63,67.72Z"/>
        </g>
        <path class="cls-7" d="M144.28,103.27a1.4,1.4,0,0,0-.62-.49c-.06-.1-57.75-31.19-57.75-31.19a.9.9,0,0,0-1,.18l-67.31,34a1.08,1.08,0,0,0-.3.26,1.58,1.58,0,0,0-.46.4,1.2,1.2,0,0,0,0,1.68L73.76,154a1.05,1.05,0,0,0,1.22,0,.85.85,0,0,0,.25-.13l68.85-48.76A1.28,1.28,0,0,0,144.28,103.27Z"/>
        <path class="cls-8" d="M143.75,90.75a1.39,1.39,0,0,0-.62-.49c-.06-.1-57.75-31.2-57.75-31.2a1,1,0,0,0-1,.19l-67.3,34a.94.94,0,0,0-.3.26,1.76,1.76,0,0,0-.47.4,1.21,1.21,0,0,0,0,1.68l56.94,45.87a1.07,1.07,0,0,0,1.22,0,1,1,0,0,0,.25-.13l68.85-48.76A1.28,1.28,0,0,0,143.75,90.75Z"/>
        <path class="cls-9" d="M134.23,50.18a1,1,0,0,0-.45-.36c-.05-.07-42.11-22.74-42.11-22.74a.66.66,0,0,0-.72.13L41.87,52a.67.67,0,0,0-.22.19,1.14,1.14,0,0,0-.34.29.9.9,0,0,0,0,1.23L82.81,87.14a.76.76,0,0,0,.89,0,.76.76,0,0,0,.18-.09l50.2-35.56A.93.93,0,0,0,134.23,50.18Z"/>
        <path class="cls-10" d="M164.54,22.79a2.63,2.63,0,0,1-.95,3.59S105.06,59,104.33,57.73h0c-.73-1.26,56.61-35.9,56.61-35.9a2.63,2.63,0,0,1,3.6,1Z"/>
        <g>
          <rect class="cls-11" x="64.8" y="48.01" width="33.21" height="1.6" transform="matrix(0.86, -0.5, 0.5, 0.86, -13.5, 47.5)"/>
          <rect class="cls-11" x="64.81" y="51.55" width="38.17" height="1.6" transform="translate(-14.96 49.94) rotate(-30.57)"/>
          <rect class="cls-11" x="72.32" y="52.95" width="35.56" height="1.6" transform="translate(-14.82 54.05) rotate(-30.98)"/>
          <rect class="cls-11" x="76.19" y="55.39" width="35.56" height="1.6" transform="translate(-15.48 58.95) rotate(-32.32)"/>
        </g>
        <g>
          <path class="cls-12" d="M79.21,121.46l-.11-4.26a21.73,21.73,0,0,0,2.41-.19l.62,4.22H82A25.77,25.77,0,0,1,79.21,121.46Zm-2.86-.08a24.3,24.3,0,0,1-2.86-.39l.84-4.18a22.72,22.72,0,0,0,2.36.33Zm8.58-.67-1-4.15a23.8,23.8,0,0,0,2.31-.68l1.44,4A27.32,27.32,0,0,1,84.93,120.71Zm-14.24-.46A22.78,22.78,0,0,1,68,119.13l1.91-3.82a15.5,15.5,0,0,0,2.16.89Zm19.64-1.49-1.89-3.82a17.09,17.09,0,0,0,2-1.18l2.36,3.56A22.89,22.89,0,0,1,90.33,118.76Zm-24.91-1.17a16.41,16.41,0,0,1-2.29-2l3.11-2.92a11.27,11.27,0,0,0,1.67,1.46Zm29.76-2.06-2.83-3.19a13.59,13.59,0,0,0,1.58-1.65l3.31,2.69A18.09,18.09,0,0,1,95.18,115.53Zm-33.92-2.44A12.31,12.31,0,0,1,60,110.16L64.15,109A8.22,8.22,0,0,0,65,111Zm37.67-2.24-3.76-2a9.7,9.7,0,0,0,.79-2l4.12,1.09A13.68,13.68,0,0,1,98.93,110.85ZM63.88,107H59.61a12.58,12.58,0,0,1,.43-3.15L64.16,105A7.61,7.61,0,0,0,63.88,107Zm36.61-2.2H96.23a8.39,8.39,0,0,0-.06-1,9.12,9.12,0,0,0-.21-1l4.11-1.13a12.54,12.54,0,0,1,.32,1.62A11.42,11.42,0,0,1,100.49,104.8ZM65,103l-3.76-2a15.34,15.34,0,0,1,1.7-2.53l3.3,2.69A11.72,11.72,0,0,0,65,103Zm30.2-2.11a9.49,9.49,0,0,0-1.3-1.72L97,96.21a13.92,13.92,0,0,1,1.88,2.49ZM67.78,99.46,65,96.27a21,21,0,0,1,2.33-1.78l2.35,3.56A15.65,15.65,0,0,0,67.78,99.46Zm24.39-1.79a13.91,13.91,0,0,0-2-1.17l1.89-3.82a19,19,0,0,1,2.56,1.53Zm-20.48-.8-1.88-3.82a23.91,23.91,0,0,1,2.65-1.12l1.43,4A21.32,21.32,0,0,0,71.69,96.87Zm16.36-1.26a21.36,21.36,0,0,0-2.29-.6l.82-4.18a23.16,23.16,0,0,1,2.81.74ZM76.2,95.26l-1-4.15A28.44,28.44,0,0,1,78,90.59l.55,4.23A20.63,20.63,0,0,0,76.2,95.26Zm7.19-.57A21.49,21.49,0,0,0,81,94.62l-.11-4.26a27.32,27.32,0,0,1,2.86.08Z"/>
          <path class="cls-12" d="M79.27,114.76a11.61,11.61,0,0,1-1.33-.07l.4-4.24a10.45,10.45,0,0,0,2.3,0l.64,4.21-.12,0A14.53,14.53,0,0,1,79.27,114.76ZM74.7,114a10.44,10.44,0,0,1-3-1.7l2.7-3.3a6.36,6.36,0,0,0,1.8,1Zm9.69-.13-1.49-4a8.54,8.54,0,0,0,2-1l2.46,3.48A12.63,12.63,0,0,1,84.39,113.84Zm5.43-4-3.46-2.49a3.77,3.77,0,0,0,.69-1.61l4.21.62A7.94,7.94,0,0,1,89.82,109.87Zm-20.46-.57a6.77,6.77,0,0,1-.53-1.92,7,7,0,0,1-.06-.91,6.23,6.23,0,0,1,.08-1.06l4.21.63a3.11,3.11,0,0,0,0,.43c0,.12,0,.24,0,.36a2.88,2.88,0,0,0,.22.76Zm4.4-4.87-3.46-2.49a10.48,10.48,0,0,1,2.49-2.43L75.24,103A6.13,6.13,0,0,0,73.76,104.43Zm13.08-.2a3.64,3.64,0,0,0-1.1-1.38l2.69-3.31a8.07,8.07,0,0,1,2.31,3ZM77.22,102l-1.48-4a14.91,14.91,0,0,1,3.16-.78l.55,4.23A10.39,10.39,0,0,0,77.22,102Zm6.71-.12a8.36,8.36,0,0,0-2.18-.48l.4-4.24a12.32,12.32,0,0,1,3.24.72Z"/>
        </g>
        <rect class="cls-12" x="11.52" y="34.63" width="69.58" height="1.6" transform="translate(-10.92 24.26) rotate(-26.38)"/>
        <path class="cls-12" d="M21.18,43.26l-.7-1.44,2.4-1.16.7,1.44ZM26,41l-.7-1.44,2.4-1.16.7,1.44Zm4.8-2.32-.7-1.44L32.48,36l.7,1.44Zm4.8-2.31-.7-1.44,2.4-1.16.7,1.44ZM40.38,34l-.7-1.44,2.4-1.16.7,1.44Zm4.8-2.32-.7-1.44,2.4-1.15.7,1.44ZM50,29.38l-.7-1.44,2.4-1.16.7,1.45Zm4.8-2.31-.7-1.44,2.4-1.16.7,1.44Zm4.8-2.32-.7-1.44,2.4-1.15L62,23.6Zm4.8-2.31L63.68,21l2.4-1.15.7,1.44Zm4.8-2.31-.7-1.44,2.4-1.16.7,1.44ZM74,17.82l-.7-1.44,2.4-1.16.7,1.44Zm4.8-2.32-.7-1.44,2.4-1.15.7,1.44Zm4.8-2.31-.7-1.44.28-.14.7,1.44Z"/>
        <path class="cls-13" d="M95,160.7l-.9-1.32,2.21-1.5.89,1.32Zm4.41-3-.9-1.33,2.2-1.5.9,1.33Zm4.4-3-.9-1.32,2.21-1.5.89,1.32Zm4.41-3-.9-1.32,2.2-1.5.9,1.32Zm4.4-3-.9-1.32,2.2-1.5.9,1.32Zm4.41-3-.9-1.32,2.2-1.5.9,1.32Zm4.4-3-.9-1.33,2.2-1.49.9,1.32Zm4.41-3-.9-1.32,2.2-1.5.9,1.32Zm4.4-3-.9-1.32,2.2-1.5.9,1.32Zm4.41-3-.9-1.32,2.2-1.5.9,1.32Zm4.4-3-.9-1.33,2.2-1.5.9,1.33Zm4.41-3-.9-1.32,2.2-1.5.9,1.32Zm4.4-3-.9-1.32,2.2-1.5.9,1.32Zm4.41-3-.9-1.32.25-.18.9,1.33Z"/>
      </g>
    </g>
  </g>
</svg>
