<svg xmlns="http://www.w3.org/2000/svg" xmlns:xlink="http://www.w3.org/1999/xlink" viewBox="0 0 313.32 209.39">
  <defs>
    <style>
      .cls-1 {
        fill: url(#linear-gradient);
      }

      .cls-2, .cls-3 {
        fill: #61ccf0;
      }

      .cls-2 {
        opacity: 0.7;
      }

      .cls-4 {
        fill: #f1f2f2;
      }

      .cls-5 {
        fill: #f26a50;
      }

      .cls-6 {
        fill: #c91d63;
      }
    </style>
    <linearGradient id="linear-gradient" x1="165.62" y1="209.39" x2="165.62" y2="95.47" gradientUnits="userSpaceOnUse">
      <stop offset="0" stop-color="#f16b51"/>
      <stop offset="1" stop-color="#c91d63"/>
    </linearGradient>
  </defs>
  <title>systems_integration_1</title>
  <g id="Layer_2" data-name="Layer 2">
    <g id="Layer_1-2" data-name="Layer 1">
      <g>
        <path class="cls-1" d="M214,95.47v62.41c0,14.27-.58,28.4-11.63,39.15-9.27,9.13-23.84,12.36-36.79,12.36s-27.53-3.23-36.8-12.36c-11-10.75-11.63-24.88-11.63-39.15V95.47Z"/>
        <g>
          <g>
            <g>
              <rect class="cls-2" x="70.18" y="105.72" width="42.91" height="56.52" rx="2.79"/>
              <path class="cls-3" d="M110.3,163.29H73a3.85,3.85,0,0,1-3.83-3.84V108.51A3.84,3.84,0,0,1,73,104.67H110.3a3.84,3.84,0,0,1,3.84,3.84v50.94A3.85,3.85,0,0,1,110.3,163.29ZM73,106.77a1.74,1.74,0,0,0-1.74,1.74v50.94A1.74,1.74,0,0,0,73,161.19H110.3a1.74,1.74,0,0,0,1.75-1.74V108.51a1.74,1.74,0,0,0-1.75-1.74Z"/>
            </g>
            <rect class="cls-4" x="76.46" y="149.68" width="29.31" height="2.09"/>
            <rect class="cls-4" x="76.46" y="142.7" width="14.36" height="2.09"/>
            <path class="cls-3" d="M108.21,123.44H75.42v-7.67h32.79Zm-30.7-2.09h28.61v-3.49H77.51Z"/>
          </g>
          <g>
            <g>
              <rect class="cls-2" x="119.03" y="105.72" width="42.91" height="56.52" rx="2.79"/>
              <path class="cls-3" d="M159.15,163.29H121.82a3.85,3.85,0,0,1-3.84-3.84V108.51a3.84,3.84,0,0,1,3.84-3.84h37.33a3.84,3.84,0,0,1,3.84,3.84v50.94A3.85,3.85,0,0,1,159.15,163.29Zm-37.33-56.52a1.74,1.74,0,0,0-1.74,1.74v50.94a1.74,1.74,0,0,0,1.74,1.74h37.33a1.75,1.75,0,0,0,1.75-1.74V108.51a1.75,1.75,0,0,0-1.75-1.74Z"/>
            </g>
            <rect class="cls-4" x="125.31" y="149.68" width="29.31" height="2.09"/>
            <rect class="cls-4" x="125.31" y="142.7" width="14.36" height="2.09"/>
            <path class="cls-3" d="M157.06,123.44h-32.8v-7.67h32.8Zm-30.7-2.09H155v-3.49H126.36Z"/>
          </g>
          <g>
            <g>
              <rect class="cls-2" x="167.88" y="105.72" width="42.91" height="56.52" rx="2.79"/>
              <path class="cls-3" d="M208,163.29H170.67a3.85,3.85,0,0,1-3.84-3.84V108.51a3.84,3.84,0,0,1,3.84-3.84H208a3.84,3.84,0,0,1,3.84,3.84v50.94A3.85,3.85,0,0,1,208,163.29Zm-37.33-56.52a1.75,1.75,0,0,0-1.75,1.74v50.94a1.75,1.75,0,0,0,1.75,1.74H208a1.74,1.74,0,0,0,1.74-1.74V108.51a1.74,1.74,0,0,0-1.74-1.74Z"/>
            </g>
            <rect class="cls-4" x="174.16" y="149.68" width="29.31" height="2.09"/>
            <rect class="cls-4" x="174.16" y="142.7" width="14.36" height="2.09"/>
            <path class="cls-3" d="M205.91,123.44h-32.8v-7.67h32.8Zm-30.71-2.09h28.61v-3.49H175.2Z"/>
          </g>
          <g>
            <g>
              <rect class="cls-2" x="167.88" y="1.05" width="42.91" height="56.52" rx="2.79"/>
              <path class="cls-3" d="M208,58.61H170.67a3.84,3.84,0,0,1-3.84-3.83V3.84A3.84,3.84,0,0,1,170.67,0H208a3.84,3.84,0,0,1,3.84,3.84V54.78A3.84,3.84,0,0,1,208,58.61ZM170.67,2.09a1.76,1.76,0,0,0-1.75,1.75V54.78a1.75,1.75,0,0,0,1.75,1.74H208a1.74,1.74,0,0,0,1.74-1.74V3.84A1.75,1.75,0,0,0,208,2.09Z"/>
            </g>
            <path class="cls-4" d="M200,28.88h-2.22V22.66h0a8,8,0,0,0-16,0h0v6.22h-2.21a.89.89,0,0,0-.89.89V42.19a.89.89,0,0,0,.89.89H200a.89.89,0,0,0,.89-.89V29.77A.89.89,0,0,0,200,28.88Zm-15.08-6.22v0a4.88,4.88,0,0,1,9.75,0s0,0,0,0v6.22h-9.76Zm6.55,15.57h-3.34l1.07-3.13a1.77,1.77,0,1,1,1.2,0Z"/>
          </g>
          <g>
            <g>
              <rect class="cls-2" x="216.72" y="105.72" width="42.91" height="56.52" rx="2.79"/>
              <path class="cls-3" d="M256.85,163.29H219.51a3.85,3.85,0,0,1-3.83-3.84V108.51a3.84,3.84,0,0,1,3.83-3.84h37.34a3.84,3.84,0,0,1,3.83,3.84v50.94A3.85,3.85,0,0,1,256.85,163.29Zm-37.34-56.52a1.74,1.74,0,0,0-1.74,1.74v50.94a1.74,1.74,0,0,0,1.74,1.74h37.34a1.74,1.74,0,0,0,1.74-1.74V108.51a1.74,1.74,0,0,0-1.74-1.74Z"/>
            </g>
            <rect class="cls-4" x="223" y="149.68" width="29.31" height="2.09"/>
            <rect class="cls-4" x="223" y="142.7" width="14.36" height="2.09"/>
            <path class="cls-3" d="M254.75,123.44H222v-7.67h32.79Zm-30.7-2.09h28.61v-3.49H224.05Z"/>
          </g>
          <g>
            <rect class="cls-3" x="177.9" y="58.62" width="1.6" height="46.58"/>
            <rect class="cls-3" x="183.23" y="58.62" width="1.6" height="46.58"/>
            <rect class="cls-3" x="188.55" y="58.62" width="1.6" height="46.58"/>
            <rect class="cls-3" x="193.88" y="58.62" width="1.6" height="46.58"/>
            <rect class="cls-3" x="199.21" y="58.62" width="1.6" height="46.58"/>
          </g>
          <polygon class="cls-5" points="189.11 169.97 136.54 169.97 120.06 183.22 69.04 183.22 52.57 169.97 0 169.97 0 172.06 52.19 172.06 68.39 185.32 120.95 185.32 136.91 172.06 189.11 172.06 189.11 169.97"/>
          <polygon class="cls-6" points="252.95 72.04 200.38 72.04 183.91 85.3 132.89 85.3 117.08 72.28 63.84 72.04 63.84 74.13 116.04 74.13 132.23 87.39 184.8 87.39 200.76 74.13 252.95 74.13 252.95 72.04"/>
          <polygon class="cls-3" points="287.84 51.1 233.33 51.1 216.28 64.36 216.29 64.36 163.31 64.36 163.31 64.36 146.26 51.1 91.75 51.1 91.75 53.2 145.9 53.2 162.66 66.45 217.17 66.45 233.7 53.2 287.84 53.2 287.84 51.1"/>
          <polygon class="cls-5" points="313.32 190.2 260.75 190.2 260.08 190.44 244.28 203.46 193.25 203.46 176.78 190.2 124.21 190.2 124.21 192.29 176.41 192.29 192.6 205.55 245.17 205.55 261.13 192.29 313.32 192.29 313.32 190.2"/>
          <polygon class="cls-3" points="208.43 190.2 192.24 176.94 139.67 176.94 123.72 190.2 71.52 190.2 71.52 192.29 124.09 192.29 140.56 179.03 191.59 179.03 207.39 192.06 260.63 192.29 260.63 190.2 208.43 190.2"/>
        </g>
      </g>
    </g>
  </g>
</svg>
