<svg xmlns="http://www.w3.org/2000/svg" xmlns:xlink="http://www.w3.org/1999/xlink" viewBox="0 0 201.04 210.74">
  <defs>
    <style>
      .cls-1 {
        fill: #9adaef;
      }

      .cls-1, .cls-18, .cls-3 {
        opacity: 0.5;
      }

      .cls-11, .cls-14, .cls-18, .cls-2 {
        fill: #61ccf0;
      }

      .cls-14, .cls-4 {
        opacity: 0.2;
      }

      .cls-4 {
        fill: url(#linear-gradient);
      }

      .cls-5 {
        fill: url(#linear-gradient-2);
      }

      .cls-6 {
        fill: url(#linear-gradient-3);
      }

      .cls-7 {
        fill: url(#linear-gradient-4);
      }

      .cls-8 {
        fill: url(#linear-gradient-5);
      }

      .cls-11, .cls-9 {
        opacity: 0.7;
      }

      .cls-10 {
        fill: url(#linear-gradient-6);
      }

      .cls-12 {
        fill: url(#linear-gradient-7);
      }

      .cls-13 {
        fill: url(#linear-gradient-8);
      }

      .cls-15 {
        fill: url(#linear-gradient-9);
      }

      .cls-16 {
        fill: url(#linear-gradient-10);
      }

      .cls-17 {
        fill: url(#linear-gradient-11);
      }

      .cls-19 {
        fill: #f1f2f2;
      }

      .cls-20 {
        fill: url(#linear-gradient-12);
      }

      .cls-21 {
        fill: #0d1034;
      }
    </style>
    <linearGradient id="linear-gradient" x1="80.28" y1="147.87" x2="186.84" y2="147.87" gradientTransform="translate(2.74 -14.77) rotate(-1.77)" gradientUnits="userSpaceOnUse">
      <stop offset="0" stop-color="#0e1139"/>
      <stop offset="0.12" stop-color="#13113a"/>
      <stop offset="0.27" stop-color="#23123e"/>
      <stop offset="0.43" stop-color="#3c1443"/>
      <stop offset="0.61" stop-color="#60164b"/>
      <stop offset="0.79" stop-color="#8d1956"/>
      <stop offset="0.98" stop-color="#c41d62"/>
      <stop offset="1" stop-color="#c91d63"/>
    </linearGradient>
    <linearGradient id="linear-gradient-2" x1="136.44" y1="144.14" x2="136.44" y2="117.39" gradientUnits="userSpaceOnUse">
      <stop offset="0" stop-color="#c91d63"/>
      <stop offset="0.04" stop-color="#a91b5c"/>
      <stop offset="0.09" stop-color="#851954"/>
      <stop offset="0.14" stop-color="#65174c"/>
      <stop offset="0.21" stop-color="#491546"/>
      <stop offset="0.28" stop-color="#331341"/>
      <stop offset="0.36" stop-color="#22123e"/>
      <stop offset="0.46" stop-color="#17123b"/>
      <stop offset="0.6" stop-color="#101139"/>
      <stop offset="1" stop-color="#0e1139"/>
    </linearGradient>
    <linearGradient id="linear-gradient-3" x1="129.66" y1="133.31" x2="147.21" y2="129.9" gradientUnits="userSpaceOnUse">
      <stop offset="0.01" stop-color="#f58c7e"/>
      <stop offset="0.75" stop-color="#1f429a"/>
      <stop offset="1" stop-color="#0e1139"/>
    </linearGradient>
    <linearGradient id="linear-gradient-4" x1="166.9" y1="124.94" x2="166.9" y2="54" gradientUnits="userSpaceOnUse">
      <stop offset="0" stop-color="#0e1139"/>
      <stop offset="0.4" stop-color="#101139"/>
      <stop offset="0.54" stop-color="#17123b"/>
      <stop offset="0.64" stop-color="#22123e"/>
      <stop offset="0.72" stop-color="#331341"/>
      <stop offset="0.79" stop-color="#491546"/>
      <stop offset="0.86" stop-color="#65174c"/>
      <stop offset="0.91" stop-color="#851954"/>
      <stop offset="0.96" stop-color="#a91b5c"/>
      <stop offset="1" stop-color="#c91d63"/>
    </linearGradient>
    <linearGradient id="linear-gradient-5" x1="169.69" y1="122.48" x2="169.69" y2="63.44" gradientUnits="userSpaceOnUse">
      <stop offset="0" stop-color="#0e1139"/>
      <stop offset="0.25" stop-color="#1f429a"/>
      <stop offset="0.99" stop-color="#f58c7e"/>
    </linearGradient>
    <linearGradient id="linear-gradient-6" x1="90.98" y1="112.11" x2="174.14" y2="60.15" gradientUnits="userSpaceOnUse">
      <stop offset="0" stop-color="#fff"/>
      <stop offset="0.22" stop-color="#fcfefe"/>
      <stop offset="0.41" stop-color="#f1fafd"/>
      <stop offset="0.59" stop-color="#dff3fa"/>
      <stop offset="0.77" stop-color="#c6eaf6"/>
      <stop offset="0.93" stop-color="#a6def1"/>
      <stop offset="0.99" stop-color="#9adaef"/>
    </linearGradient>
    <linearGradient id="linear-gradient-7" x1="101.84" y1="186.08" x2="168.27" y2="173.16" xlink:href="#linear-gradient-6"/>
    <linearGradient id="linear-gradient-8" x1="150.38" y1="218.68" x2="150.38" y2="164.35" gradientUnits="userSpaceOnUse">
      <stop offset="0" stop-color="#c91d63"/>
      <stop offset="0.08" stop-color="#9e1a59"/>
      <stop offset="0.17" stop-color="#781851"/>
      <stop offset="0.27" stop-color="#571649"/>
      <stop offset="0.37" stop-color="#3c1443"/>
      <stop offset="0.48" stop-color="#28133f"/>
      <stop offset="0.61" stop-color="#19123c"/>
      <stop offset="0.76" stop-color="#11113a"/>
      <stop offset="1" stop-color="#0e1139"/>
    </linearGradient>
    <linearGradient id="linear-gradient-9" x1="110.98" y1="91.3" x2="110.98" y2="82.14" gradientUnits="userSpaceOnUse">
      <stop offset="0.16" stop-color="#f58c7e"/>
      <stop offset="0.45" stop-color="#1f429a"/>
      <stop offset="0.6" stop-color="#0e1139"/>
    </linearGradient>
    <linearGradient id="linear-gradient-10" x1="108.36" y1="86.45" x2="109.98" y2="86.45" gradientUnits="userSpaceOnUse">
      <stop offset="0" stop-color="#f26a50"/>
      <stop offset="1" stop-color="#c91d63"/>
    </linearGradient>
    <linearGradient id="linear-gradient-11" x1="108.06" y1="84.14" x2="113.61" y2="84.14" gradientUnits="userSpaceOnUse">
      <stop offset="0" stop-color="#fff"/>
      <stop offset="0.15" stop-color="#e5f5fb"/>
      <stop offset="0.38" stop-color="#c4eaf6"/>
      <stop offset="0.6" stop-color="#ade1f2"/>
      <stop offset="0.81" stop-color="#9fdcf0"/>
      <stop offset="0.99" stop-color="#9adaef"/>
    </linearGradient>
    <linearGradient id="linear-gradient-12" x1="146.5" y1="210.74" x2="146.5" y2="167.66" gradientUnits="userSpaceOnUse">
      <stop offset="0" stop-color="#1f429a"/>
      <stop offset="0.99" stop-color="#f58c7e"/>
    </linearGradient>
  </defs>
  <title>tech-strategy</title>
  <g id="Layer_2" data-name="Layer 2">
    <g id="Layer_1-2" data-name="Layer 1">
      <g>
        <g>
          <g>
            <rect class="cls-1" x="29.4" y="29.94" width="19.71" height="78.86"/>
            <g>
              <g>
                <rect class="cls-2" x="38.46" y="31.13" width="1.6" height="17.33" transform="translate(-16.64 39.42) rotate(-45)"/>
                <rect class="cls-2" x="30.6" y="39" width="17.33" height="1.6" transform="translate(-16.64 39.39) rotate(-44.97)"/>
              </g>
              <g>
                <rect class="cls-2" x="38.46" y="51" width="1.6" height="17.33" transform="translate(-30.69 45.24) rotate(-45)"/>
                <rect class="cls-2" x="30.59" y="58.87" width="17.33" height="1.6" transform="translate(-30.69 45.21) rotate(-44.97)"/>
              </g>
              <g>
                <rect class="cls-2" x="38.46" y="70.88" width="1.6" height="17.33" transform="translate(-44.75 51.06) rotate(-45)"/>
                <rect class="cls-2" x="30.6" y="78.74" width="17.33" height="1.6" transform="translate(-44.73 51.03) rotate(-44.98)"/>
              </g>
              <g>
                <rect class="cls-2" x="38.46" y="90.75" width="1.6" height="17.33" transform="translate(-58.8 56.88) rotate(-45)"/>
                <rect class="cls-2" x="30.6" y="98.62" width="17.33" height="1.6" transform="translate(-58.78 56.84) rotate(-44.97)"/>
              </g>
              <rect class="cls-2" x="33.13" y="48.77" width="12.25" height="1.6"/>
              <rect class="cls-2" x="33.13" y="68.64" width="12.25" height="1.6"/>
              <rect class="cls-2" x="33.13" y="88.51" width="12.25" height="1.6"/>
            </g>
          </g>
          <g>
            <rect class="cls-2" x="29.4" width="19.71" height="1.6"/>
            <rect class="cls-2" x="29.4" y="5.33" width="19.71" height="1.6"/>
            <rect class="cls-2" x="29.4" y="10.66" width="19.71" height="1.6"/>
            <rect class="cls-2" x="29.4" y="15.98" width="19.71" height="1.6"/>
            <rect class="cls-2" x="29.4" y="21.31" width="19.71" height="1.6"/>
          </g>
        </g>
        <g>
          <rect class="cls-2" y="174.25" width="1.6" height="4.26"/>
          <path class="cls-2" d="M87,178.51H83.74v-4.26H87Zm-6.57,0H77.17v-4.26h3.28Zm-6.57,0H70.6v-4.26h3.28Zm-6.57,0H64v-4.26h3.29Zm-6.57,0H57.45v-4.26h3.29Zm-6.57,0H50.88v-4.26h3.29Zm-6.57,0H44.31v-4.26H47.6Zm-6.57,0H37.74v-4.26H41Zm-6.58,0H31.17v-4.26h3.28Zm-6.57,0H24.6v-4.26h3.28Zm-6.57,0H18v-4.26h3.28Zm-6.57,0H11.46v-4.26h3.28Zm-6.57,0H4.88v-4.26H8.17Z"/>
          <rect class="cls-2" x="90.31" y="174.25" width="1.6" height="4.26"/>
        </g>
        <g>
          <rect class="cls-2" x="58.72" y="62.44" width="1.6" height="4.26"/>
          <path class="cls-2" d="M145.74,66.7h-3.28V62.44h3.28Zm-6.57,0h-3.29V62.44h3.29Zm-6.57,0h-3.29V62.44h3.29Zm-6.57,0h-3.29V62.44H126Zm-6.57,0h-3.29V62.44h3.29Zm-6.57,0H109.6V62.44h3.29Zm-6.58,0H103V62.44h3.28Zm-6.57,0H96.46V62.44h3.28Zm-6.57,0H89.89V62.44h3.28Zm-6.57,0H83.31V62.44H86.6ZM80,66.7H76.74V62.44H80Zm-6.57,0H70.17V62.44h3.29Zm-6.57,0H63.6V62.44h3.29Z"/>
          <rect class="cls-2" x="149.03" y="62.44" width="1.6" height="4.26"/>
        </g>
        <g class="cls-3">
          <g>
            <rect class="cls-2" x="31.86" y="109.9" width="12.88" height="12.88" rx="4.58"/>
            <rect class="cls-2" x="49.03" y="109.9" width="12.88" height="12.88" rx="4.58"/>
            <rect class="cls-2" x="66.21" y="109.9" width="12.88" height="12.88" rx="4.58"/>
          </g>
          <g>
            <rect class="cls-2" x="31.86" y="130.84" width="12.88" height="12.88" rx="4.58"/>
            <rect class="cls-2" x="49.03" y="130.84" width="12.88" height="12.88" rx="4.58"/>
            <rect class="cls-2" x="66.21" y="130.84" width="12.88" height="12.88" rx="4.58"/>
          </g>
          <g>
            <rect class="cls-2" x="31.86" y="151.77" width="12.88" height="12.88" rx="4.58"/>
            <rect class="cls-2" x="49.03" y="151.77" width="12.88" height="12.88" rx="4.58"/>
            <rect class="cls-2" x="66.21" y="151.77" width="12.88" height="12.88" rx="4.58"/>
          </g>
        </g>
        <g class="cls-3">
          <g>
            <rect class="cls-2" x="159.54" y="148.52" width="9.95" height="9.95" rx="3.54"/>
            <rect class="cls-2" x="172.81" y="148.52" width="9.95" height="9.95" rx="3.54"/>
            <rect class="cls-2" x="186.08" y="148.52" width="9.95" height="9.95" rx="3.54"/>
          </g>
          <g>
            <rect class="cls-2" x="159.54" y="164.7" width="9.95" height="9.95" rx="3.54"/>
            <rect class="cls-2" x="172.81" y="164.7" width="9.95" height="9.95" rx="3.54"/>
            <rect class="cls-2" x="186.08" y="164.7" width="9.95" height="9.95" rx="3.54"/>
          </g>
          <g>
            <rect class="cls-2" x="159.54" y="180.89" width="9.95" height="9.95" rx="3.54"/>
            <rect class="cls-2" x="172.81" y="180.89" width="9.95" height="9.95" rx="3.54"/>
            <rect class="cls-2" x="186.08" y="180.89" width="9.95" height="9.95" rx="3.54"/>
          </g>
        </g>
        <g>
          <path class="cls-4" d="M191,100.59c0-.28-.08-.57-.13-.87l-6.67.2a43.64,43.64,0,0,0,1.54-10.28,62.1,62.1,0,0,0-.86-7.6l7.8-.24c0-.26,0-.55-.07-.88l-7.89.24c-.83-4.35-2.32-9.42-5-12.75l-.05-.06,8.25-.25c0-.31.07-.61.1-.89l-9.09.28A39.22,39.22,0,0,0,169.13,60l0-1.95a1.31,1.31,0,1,0-.87,0l0,1.44a49.2,49.2,0,0,0-4.55-2.19l-3.42-4s-19.49-7-29.43-6-13.76,1.76-22.77,9.23S96,79.23,96,79.23l.72,10.27s-8.82,7.2-10,9.37,4.69,5.21,4.69,5.21l-1.08,5,5.82,1.88s-5.3-.58-5.89-.1c-1.59,1.28.71,5.62.71,5.62s-2,5.6.31,9l.22.26a2.43,2.43,0,0,1-.46-.28,6.07,6.07,0,0,0,.5.94c2.33,3.44,24.88,6.65,24.88,6.65l.4-.24,7.42,7.71,1.72,4-5.28.69s-4.79,9.59-10.69,19.88c-4.5,7.86-10.23,16.14-11.53,20.76-3,10.67,6.67,24.91,6.67,24.91l27.77-.44v.09l3-.09v.13l6.35-.19,0,.5,1.1,0h0l7-.21h0l.7,0V210l9.27-.15s.49-11,.54-22c0-9.53,1.15-18.93-.13-23.3-2.75-9.43-13.8-20.17-13.8-20.17L137.1,143l6.18.22-2.43-5.84,4.3-.13a1.32,1.32,0,1,0-.1-.88l-4.57.14-1.61-3.87,4.54-.14a1.33,1.33,0,1,0-.09-.88l-4.81.15L135.67,125h.25l.53,1.7s7.16,0,13.59-.39l0-1.73,2.7-.2c0,.57,0,1.14.08,1.72a31.6,31.6,0,0,0,5.81-1l.82-.27,0,.66.59-.85a27.55,27.55,0,0,0,12.87-7.86,49.93,49.93,0,0,0,5.24-5.11,25.5,25.5,0,0,0,4.36-7h.23L183,104h-.17c.43-1.08.8-2.15,1.12-3.21ZM155.83,124l.8-.12a1.09,1.09,0,0,1-.51.15A1.36,1.36,0,0,1,155.83,124Z"/>
          <g>
            <polygon class="cls-5" points="139.94 117.39 123.06 131.38 130.88 140.03 132.53 144.14 143.64 142.91 149.82 143.32 139.94 117.39"/>
            <path class="cls-6" d="M139.94,117.39l-2.61,2.16c2,6.56,1.46,13.58,1.43,20.38,0,.2-2.82.35-7.72.48l1.49,3.73,11.11-1.23,6.18.41Z"/>
            <path class="cls-7" d="M188.51,69.64c-5.32-7-15.64-11.53-15.64-11.53L169.57,54l-.82,6.58L144.46,93.51l1.65,7-6.17,16.88L142,124.8s19.25.69,25.1-1,10.73-2.78,18.53-11S193.86,91,193.86,91,193.83,76.68,188.51,69.64Z"/>
            <path class="cls-8" d="M183.5,91.55a1.17,1.17,0,1,1-1.07-1.64,1.16,1.16,0,0,1,1.12.87h9.9c0-.94-.14-2.2-.31-3.64H183.5a1.17,1.17,0,1,1-1.07-1.64,1.16,1.16,0,0,1,1.12.87H193a40.67,40.67,0,0,0-1.69-7.62c-4.24-.09-7.67-.23-7.69-.46-.3-3.48-.46-7-1-10.41A47,47,0,0,0,175,63.44l-3.63,2.18-6.44,8.72H177a1.15,1.15,0,1,1,.05.78H164.32l-1.62,2.21v1.42H177a1.15,1.15,0,1,1,.05.78H162.69V82.9H177a1.15,1.15,0,1,1,.05.78h-14.4v7.61H152.4l-2.49,3.37h17.82l.09.22v6.83h7V95.46a1.18,1.18,0,1,1,.77,0l0,7h-7.73v1.82h10.67v7.83a1.17,1.17,0,1,1-.77,0v-7.06h-9.9v13a1.17,1.17,0,1,1-.78,0V95.44H150l1.28,5.46L148,110.11h10.29v.78H147.67l-1.23,3.37h11.81V115h-12.1l-.28.77,1.82,6.55s17,.61,22.18-.87c4.86-1.39,9-2.34,15.15-8.44l0-5.57a1.16,1.16,0,1,1,1.55-1.1,1.17,1.17,0,0,1-.78,1.1v4.82l.48-.49c4.68-4.9,6.35-12,6.95-16.11H183.5a1.17,1.17,0,1,1-1.07-1.64,1.16,1.16,0,0,1,1.12.87h9.75c.18-1.48.21-2.4.21-2.4s0-.36,0-1Z"/>
            <g class="cls-9">
              <path class="cls-2" d="M178.25,98.25a1.17,1.17,0,0,1,1.12.86h9.74c.19-1.47.22-2.39.22-2.39s0-.36,0-1h-10a1.17,1.17,0,1,1-1.06-1.64,1.17,1.17,0,0,1,1.12.86h9.9c-.05-.94-.15-2.19-.32-3.63h-9.64a1.17,1.17,0,1,1,.06-.78h9.49l-5.44-2.26.36-12.24a26,26,0,0,0-3.41-.91c-.09,5.51-.23,10.71-.44,10.71a8.8,8.8,0,0,1-2.79-.35c-.3-3.44-.43-6.9-.4-10.36H163.21l-2.5,3.4h12.13a1.16,1.16,0,0,1,1.12-.87A1.17,1.17,0,0,1,174,80a1.16,1.16,0,0,1-1.06-.69H160.13l-1.62,2.2v1.43h14.33a1.15,1.15,0,0,1,1.12-.86,1.17,1.17,0,1,1-1.06,1.64H158.5v3.37h14.34a1.15,1.15,0,0,1,1.12-.86,1.17,1.17,0,1,1-1.06,1.64H158.5l0,7.61H148.21l-2.49,3.37h17.82l.09.22v6.83h7V99.64a1.16,1.16,0,0,1-.78-1.09,1.17,1.17,0,1,1,1.56,1.1l0,7h-7.74v1.81h10.68v7.83a1.17,1.17,0,1,1-.78,0v-7h-9.9v13a1.17,1.17,0,1,1-.78,0V99.63h-17l1.07,4.51c1.52,0,6.73.32,6.73.32l.23,6.05s-3.28.33-8.89.45l-1.22,3.33h10.3v.78H143.48l-1.23,3.37h11.82v.78H142l-.28.78,1.82,6.54s7.16.26,13.6,0q.09-7.77.29-15.53l.21-2.87h1.75a108.4,108.4,0,0,1,.4,11c0,2.44.07,4.87.1,7.31a31,31,0,0,0,5.84-.77c4.85-1.39,8.95-2.35,15.14-8.44l0-5.57a1.17,1.17,0,1,1,1.55-1.1,1.14,1.14,0,0,1-.78,1.09v4.83l.48-.49c4.68-4.9,6.36-12,6.95-16.11h-9.69a1.17,1.17,0,1,1-1.06-1.64Z"/>
            </g>
            <path class="cls-2" d="M168.55,84.6a1.32,1.32,0,1,0,.88,0V69.89h11.2v8a1.33,1.33,0,1,0,.88,0V69H169.43V67h8.76l0-8a1.33,1.33,0,1,0-.87,0v7.07h-7.93V58.34l-.1-.24H149.16l0,.06.19.82h19.24Z"/>
            <path class="cls-2" d="M167.38,122.44h1.83l.65-.89h-2.48v-7.71a1.32,1.32,0,1,0-1.76-1.24,1.32,1.32,0,0,0,.88,1.24V126.1l.86-1.17Z"/>
            <path class="cls-2" d="M140.83,107.54h16.29a1.33,1.33,0,1,0-.06-.88H140.83v-3.82h16.29a1.32,1.32,0,0,0,2.53-.54,1.32,1.32,0,0,0-2.59-.34H140.84v-1.61l-.86,1.16v13.76H129.83l-.65.88h11.63Z"/>
            <path class="cls-2" d="M155.93,91.58a1.32,1.32,0,0,0,2.53-.54,1.32,1.32,0,0,0-2.59-.34H142.14l-.65.88Z"/>
            <path class="cls-2" d="M151.86,137.41a1.32,1.32,0,1,0,1.21-1.86,1.31,1.31,0,0,0-1.27,1H138.07l-.65.89Z"/>
            <path class="cls-2" d="M150.28,132.61a1.3,1.3,0,0,0,1.2.78,1.32,1.32,0,1,0-1.27-1.67H136.48l-.65.89Z"/>
            <path class="cls-2" d="M156.58,85V79.55a1.32,1.32,0,1,0-1.76-1.24,1.33,1.33,0,0,0,.89,1.24l0,6.3Q156.16,85.45,156.58,85Z"/>
            <path class="cls-2" d="M189.8,82.54a1.3,1.3,0,1,0-.06.88H201c0-.26,0-.55,0-.88Z"/>
            <path class="cls-2" d="M186.67,100.29a1.33,1.33,0,0,0,0,2.65,1.31,1.31,0,0,0,1.2-.79h10.92c0-.28-.07-.58-.11-.88H187.94A1.32,1.32,0,0,0,186.67,100.29Z"/>
            <path class="cls-2" d="M185.82,68.7a1.32,1.32,0,1,0-1.27,1.66,1.32,1.32,0,0,0,1.2-.78h11c.05-.31.09-.61.12-.88Z"/>
            <path class="cls-2" d="M177.12,105.32V85.45a1,1,0,1,0-.67,0v5.9H164.07a1,1,0,0,0-2,.26A1,1,0,0,0,164,92h12.44v3.14H164.07a1,1,0,1,0-1,1.27,1,1,0,0,0,.92-.6h12.44v2.92h-12.4a1,1,0,1,0-1,1.27,1,1,0,0,0,.92-.6h12.45V106h14l.25-.68Z"/>
            <rect class="cls-2" x="129.87" y="126.01" width="1.4" height="21.22" transform="translate(-58.36 132.34) rotate(-45)"/>
            <rect class="cls-2" x="135.8" y="122.43" width="1.4" height="22.09" transform="translate(-39.16 58.7) rotate(-21.3)"/>
            <rect class="cls-2" x="137.72" y="119.43" width="1.4" height="24.6" transform="translate(-34.19 49.75) rotate(-18.18)"/>
            <rect class="cls-2" x="143.19" y="116.84" width="1.4" height="29.22" transform="translate(-36.73 58.23) rotate(-20.35)"/>
            <path class="cls-10" d="M169.57,54s-19.26-7.58-29.22-6.88-13.81,1.34-23,8.52-12.76,22.23-12.76,22.23L105,88.16s-9,6.93-10.29,9.06,4.52,5.35,4.52,5.35L98,107.51l5.76,2.06s-5.28-.75-5.89-.29c-1.62,1.23.54,5.64.54,5.64s-2.18,5.54,0,9,24.66,7.41,24.66,7.41l17.57-9.81,10.83-24.35s-2.6-6.21.83-11.94,20.58-27.17,20.58-27.17Z"/>
            <path class="cls-11" d="M173.1,59l-3.29-4.11-.44-.17C168.22,56.33,153.07,77,150,82.65c-3.18,5.87-.33,12-.33,12l-9.81,24.79a36.33,36.33,0,0,1-13,5.22c-11.37,2-26.45,1.31-28.74-.67a5.59,5.59,0,0,0,.47,1c2.22,3.52,24.66,7.41,24.66,7.41l17.58-9.81,10.82-24.35s-2.6-6.21.83-11.94S173.1,59,173.1,59Z"/>
            <path class="cls-12" d="M153.52,144.56l-9.88-1.65-16.46,1.65s-5.08,9.44-11.3,19.54c-4.74,7.71-10.73,15.81-12.17,20.38-3.33,10.58,5.91,25.81,5.91,25.81l55.27.13s.82-11,1.21-22c.33-9.52,1.73-18.88.59-23.29C164.23,155.63,153.52,144.56,153.52,144.56Z"/>
            <path class="cls-13" d="M145.75,210.18l12.35,0V172.07a7.72,7.72,0,0,0-15.44,0v38.11Z"/>
            <path class="cls-14" d="M108.8,90.2s-2.76,7.91-2.53,10c0,7.62,4.06,12.23,4.93,14.26s1.89,4.11,2.76,6.34c-2.43-1.6-4.6-7-4.6-7s-4.09-3-4.58-5.26a30.92,30.92,0,0,1,0-9.51C105.31,97,108.8,90.2,108.8,90.2Z"/>
            <path class="cls-11" d="M100,102.6a1.32,1.32,0,0,0-.74-.3,3.68,3.68,0,0,1-.63-.17,4,4,0,0,1-.66-.32,3.67,3.67,0,0,1-.76-.61,1.66,1.66,0,0,1,.93-.47,1.89,1.89,0,0,1,1,.09,1.82,1.82,0,0,1,.85.64,1.37,1.37,0,0,1,.22.56A.67.67,0,0,1,100,102.6Z"/>
            <path class="cls-15" d="M108.37,86.72a11.22,11.22,0,0,1,.32-2.86l-.32-1.72L111,84.43l2.62,2.29a6.69,6.69,0,0,0-2.83,1.55,8.18,8.18,0,0,0-2.41,3L109.49,89A4,4,0,0,1,108.37,86.72Z"/>
            <path class="cls-16" d="M108.64,84a10.77,10.77,0,0,0-.27,2.64,3.87,3.87,0,0,0,1.09,2.23,4.16,4.16,0,0,0,.52-2.11C110,85.34,109.39,84.16,108.64,84Z"/>
            <polygon class="cls-17" points="113.61 86.7 110.84 84.15 108.06 81.58 108.39 83.52 108.3 84.46 110.3 85.3 113.61 86.7"/>
            <polygon class="cls-18" points="113.23 86.49 113.52 86.61 110.76 84.06 107.97 81.49 108.2 82.79 110.76 84.67 113.23 86.49"/>
            <path class="cls-19" d="M109,85.56c0,.26-.1.47-.23.47s-.23-.21-.23-.47.1-.46.23-.46S109,85.3,109,85.56Z"/>
            <path class="cls-20" d="M145.79,201.81a1.54,1.54,0,0,1,.51-3,1.54,1.54,0,0,1,.51,3l-.05,8.92h8.85V174.91c0-4-4.08-7.25-9.11-7.25-4.33,0-7.95,2.4-8.88,5.62h11.61a1.54,1.54,0,1,1,.08,1H137.42a5.65,5.65,0,0,0,0,.59v4.22h11.85a1.54,1.54,0,1,1,.08,1H137.38v4.47h11.85a1.55,1.55,0,1,1,.08,1H137.38V210.1h8.41Z"/>
            <path class="cls-11" d="M147.09,203.63a1.24,1.24,0,1,1,.82,0l0,7.11h7V182.23c0-3.19-3.24-5.78-7.25-5.78-3.45,0-6.32,1.92-7.06,4.48h9.23A1.24,1.24,0,0,1,151,180a1.23,1.23,0,1,1-1.12,1.73h-9.46a3.87,3.87,0,0,0,0,.48v3.36h9.42a1.23,1.23,0,0,1,2.42.32,1.23,1.23,0,0,1-2.35.5h-9.49V190h9.42a1.24,1.24,0,1,1,.07.82h-9.49v19.44h6.68Z"/>
            <path class="cls-2" d="M128.56,200.37h5.73l.05-8.93a1.54,1.54,0,1,0-1,0v8.3h-8.4v.63Z"/>
            <path class="cls-21" d="M160.84,204.49a1.57,1.57,0,0,0,1.42.92,1.55,1.55,0,1,0-1.49-1.95H148.92v1Z"/>
            <path class="cls-21" d="M161.78,167.12a1.55,1.55,0,1,0-.08-1H150.09a6.16,6.16,0,0,0-.2,1Z"/>
            <path class="cls-2" d="M146.6,196.43a1.55,1.55,0,1,0-1.49-2H133.26v1h11.92A1.57,1.57,0,0,0,146.6,196.43Z"/>
            <path class="cls-2" d="M156,196.83v-4.48h7.17v-1H156V186.5h7.2a5.21,5.21,0,0,1,.2-1H156l0-9a1.56,1.56,0,1,0-1,0v30.49H120.5v1h35.44l0-10.09h7.18v-1Z"/>
          </g>
        </g>
      </g>
    </g>
  </g>
</svg>
